<svg width="342" height="24" viewBox="0 0 342 24" fill="none" xmlns="http://www.w3.org/2000/svg">
<g clip-path="url(#clip0_1_823)">
<g clip-path="url(#clip1_1_823)">
<path d="M172.081 9.4697C168.561 9.53914 165.72 12.3787 165.65 15.8979H157.442C157.37 12.3348 154.459 9.4683 150.879 9.4683C147.298 9.4683 144.387 12.3348 144.316 15.8979H136.108C136.036 12.3348 133.125 9.4683 129.545 9.4683C125.965 9.4683 123.054 12.3348 122.982 15.8979L114.774 15.8979C114.703 12.3348 111.792 9.4683 108.211 9.4683C104.631 9.4683 101.72 12.3348 101.648 15.8979L93.4408 15.8979C93.3691 12.3348 90.4585 9.4683 86.8778 9.4683C83.2978 9.4683 80.3866 12.3348 80.3154 15.8979L72.1069 15.8979C72.0357 12.3348 69.1245 9.4683 65.5444 9.4683C61.9638 9.4683 59.0532 12.3348 58.9815 15.8979L50.7735 15.8979C50.7018 12.3348 47.7911 9.4683 44.211 9.4683C40.6304 9.4683 37.7198 12.3348 37.648 15.8979L29.4401 15.8979C29.3683 12.3348 26.4572 9.4683 22.8771 9.4683C19.2965 9.4683 16.3858 12.3348 16.3141 15.8979L8.1066 15.8979C8.03488 12.3348 5.12375 9.4683 1.54367 9.4683C1.49377 9.4683 1.44385 9.46887 1.39395 9.47001V8.1016H343L343 9.46913C342.966 9.46861 342.932 9.46835 342.899 9.46835C339.318 9.46835 336.407 12.3348 336.336 15.8979L328.128 15.8979C328.056 12.3347 325.145 9.4683 321.565 9.4683C317.985 9.4683 315.074 12.3347 315.002 15.8979L306.794 15.8979C306.723 12.3347 303.812 9.4683 300.231 9.4683C296.651 9.4683 293.74 12.3347 293.669 15.8979L285.46 15.8979C285.389 12.3347 282.478 9.4683 278.897 9.4683C275.317 9.4683 272.407 12.3347 272.335 15.8979L264.127 15.8979C264.055 12.3347 261.145 9.4683 257.564 9.4683C253.984 9.4683 251.073 12.3347 251.001 15.8979L242.793 15.8979C242.722 12.3347 239.811 9.4683 236.231 9.4683C232.65 9.4683 229.739 12.3348 229.668 15.8979L221.46 15.8979C221.388 12.3348 218.477 9.4683 214.897 9.4683C211.316 9.4683 208.406 12.3348 208.334 15.8979L200.126 15.8979C200.054 12.3348 197.144 9.4683 193.563 9.4683C189.983 9.4683 187.072 12.3348 187 15.8979L178.793 15.8979C178.721 12.3627 175.856 9.51326 172.314 9.46882C172.28 9.4683 172.246 9.4684 172.213 9.4684C172.206 9.4684 172.2 9.4684 172.194 9.4684C172.156 9.46861 172.118 9.46882 172.081 9.4697Z" fill="#CCCCCC"/>
</g>
</g>
<defs>
<clipPath id="clip0_1_823">
<rect width="342" height="24" fill="white" transform="matrix(-1 0 0 -1 342 24)"/>
</clipPath>
<clipPath id="clip1_1_823">
<rect width="342" height="7.79635" fill="white" transform="matrix(-1 0 0 -1 343 15.8979)"/>
</clipPath>
</defs>
</svg>
