<svg width="342" height="24" viewBox="0 0 342 24" fill="none" xmlns="http://www.w3.org/2000/svg">
<g clip-path="url(#clip0_1_807)">
<g clip-path="url(#clip1_1_807)">
<path d="M-0.89858 14.5316C2.68174 14.5316 5.5926 11.6652 5.66427 8.10206L13.8723 8.10206C13.944 11.6652 16.8548 14.5317 20.4352 14.5317C24.0155 14.5317 26.9263 11.6652 26.998 8.10206L35.2058 8.10206C35.2775 11.6652 38.1883 14.5317 41.7687 14.5317C45.349 14.5317 48.2598 11.6652 48.3315 8.10206L56.5397 8.10206C56.6114 11.6652 59.522 14.5317 63.1027 14.5317C66.6827 14.5317 69.5934 11.6652 69.6651 8.10205L77.8731 8.10205C77.9448 11.6652 80.8555 14.5317 84.4356 14.5317C88.0162 14.5317 90.9268 11.6652 90.9985 8.10205L99.2065 8.10205C99.2783 11.6652 102.189 14.5317 105.769 14.5317C109.35 14.5317 112.261 11.6652 112.332 8.10205L120.54 8.10205C120.612 11.6652 123.523 14.5317 127.103 14.5317C130.684 14.5317 133.594 11.6652 133.666 8.10205L141.874 8.10205C141.946 11.6652 144.856 14.5317 148.437 14.5317C152.017 14.5317 154.928 11.6652 155 8.10205L163.207 8.10205C163.279 11.6373 166.144 14.4867 169.686 14.5311C169.72 14.5317 169.754 14.5316 169.787 14.5316C169.792 14.5316 169.796 14.5316 169.8 14.5316C169.84 14.5314 169.88 14.5309 169.919 14.53C173.439 14.4605 176.28 11.6213 176.35 8.10206L184.558 8.10206C184.63 11.6652 187.541 14.5317 191.121 14.5317C194.701 14.5317 197.613 11.6652 197.684 8.10206L205.892 8.10206C205.964 11.6652 208.875 14.5317 212.455 14.5317C216.035 14.5317 218.946 11.6652 219.018 8.10206L227.226 8.10206C227.297 11.6652 230.208 14.5317 233.789 14.5317C237.369 14.5317 240.28 11.6652 240.351 8.10205L248.559 8.10205C248.631 11.6652 251.542 14.5317 255.122 14.5317C258.702 14.5317 261.613 11.6652 261.685 8.10205L269.893 8.10205C269.964 11.6652 272.875 14.5317 276.456 14.5317C280.036 14.5317 282.947 11.6652 283.019 8.10205L291.227 8.10205C291.298 11.6652 294.209 14.5317 297.789 14.5317C301.37 14.5317 304.28 11.6652 304.352 8.10205L312.56 8.10205C312.632 11.6652 315.543 14.5317 319.123 14.5317C322.703 14.5317 325.614 11.6652 325.686 8.10205L333.893 8.10205C333.965 11.6652 336.876 14.5317 340.456 14.5317C340.506 14.5317 340.556 14.5311 340.606 14.53V15.8984H-0.999794L-1 14.5309C-0.966255 14.5314 -0.932447 14.5316 -0.89858 14.5316Z" fill="white"/>
</g>
</g>
<defs>
<clipPath id="clip0_1_807">
<rect width="342" height="24" fill="white"/>
</clipPath>
<clipPath id="clip1_1_807">
<rect width="342" height="7.79635" fill="white" transform="translate(-1 8.10205)"/>
</clipPath>
</defs>
</svg>
