<svg width="24" height="24" viewBox="0 0 24 24" fill="none" xmlns="http://www.w3.org/2000/svg">
<path fill-rule="evenodd" clip-rule="evenodd" d="M2.469 6.96839C2.53867 6.89854 2.62143 6.84313 2.71255 6.80532C2.80367 6.76751 2.90135 6.74805 3 6.74805C3.09865 6.74805 3.19633 6.76751 3.28745 6.80532C3.37857 6.84313 3.46133 6.89854 3.531 6.96839L12 15.4389L20.469 6.96839C20.5387 6.89866 20.6215 6.84334 20.7126 6.8056C20.8037 6.76786 20.9014 6.74844 21 6.74844C21.0986 6.74844 21.1963 6.76786 21.2874 6.8056C21.3785 6.84334 21.4613 6.89866 21.531 6.96839C21.6007 7.03812 21.656 7.1209 21.6938 7.21201C21.7315 7.30312 21.7509 7.40077 21.7509 7.49939C21.7509 7.598 21.7315 7.69565 21.6938 7.78676C21.656 7.87787 21.6007 7.96066 21.531 8.03039L12.531 17.0304C12.4613 17.1002 12.3786 17.1556 12.2874 17.1935C12.1963 17.2313 12.0986 17.2507 12 17.2507C11.9013 17.2507 11.8037 17.2313 11.7125 17.1935C11.6214 17.1556 11.5387 17.1002 11.469 17.0304L2.469 8.03039C2.39915 7.96072 2.34374 7.87796 2.30593 7.78684C2.26812 7.69572 2.24866 7.59804 2.24866 7.49939C2.24866 7.40074 2.26812 7.30305 2.30593 7.21194C2.34374 7.12082 2.39915 7.03806 2.469 6.96839Z" fill="#212529"/>
</svg>
