<svg width="420" height="214" viewBox="0 0 420 214" fill="none" xmlns="http://www.w3.org/2000/svg">
<g clip-path="url(#clip0_1_422)">
<g clip-path="url(#clip1_1_422)">
<path d="M274.534 44.7539L273.012 41.7711C261.6 19.3838 238.919 5.47363 213.829 5.47363C177.203 5.47363 147.411 35.2666 147.411 71.8916C147.411 108.517 177.203 138.31 213.829 138.31C238.919 138.31 261.6 124.399 273.019 102.012L274.541 99.0295L247.403 71.8916L274.541 44.7539H274.534ZM263.21 100.736C252.959 118.311 234.325 129.089 213.822 129.089C182.282 129.089 156.619 103.425 156.619 71.8848C156.619 40.3446 182.289 14.688 213.829 14.688C234.333 14.688 252.959 25.4652 263.218 43.0407L240.885 65.3734L213.829 38.3175L180.261 71.8848L213.829 105.452L240.885 78.3962L263.218 100.729L263.21 100.736ZM234.359 71.8848L213.822 92.4224L193.284 71.8848L213.822 51.3472L234.359 71.8848Z" fill="#3640E8"/>
<path d="M4.64734 175.626C4.64734 163.446 13.677 154.004 26.2698 154.004C33.8702 154.004 40.5832 157.865 44.1463 163.805L37.0811 167.903C35.0624 164.219 31.0184 161.963 26.2698 161.963C18.1343 161.963 12.7829 167.606 12.7829 175.626C12.7829 183.647 18.1275 189.228 26.2698 189.228C31.0184 189.228 35.1234 186.972 37.0811 183.348L44.1463 187.447C40.6442 193.388 33.9312 197.249 26.2698 197.249C13.677 197.249 4.64734 187.745 4.64734 175.626Z" fill="#3640E8"/>
<path d="M47.1539 181.566C47.1539 172.713 54.104 165.885 62.8357 165.885C71.5673 165.885 78.5783 172.713 78.5783 181.566C78.5783 190.42 71.5673 197.248 62.8357 197.248C54.104 197.248 47.1539 190.42 47.1539 181.566ZM70.917 181.566C70.917 176.757 67.4149 173.369 62.8357 173.369C58.2564 173.369 54.8153 176.757 54.8153 181.566C54.8153 186.376 58.3175 189.763 62.8357 189.763C67.3539 189.763 70.917 186.376 70.917 181.566Z" fill="#3640E8"/>
<path d="M111.446 178.179V196.415H103.784V179.128C103.784 175.09 101.345 173.01 97.9042 173.01C94.1651 173.01 91.3675 175.205 91.3675 180.374V196.415H83.7061V166.71H91.3675V170.036C93.149 167.361 96.2383 165.878 100.221 165.878C106.514 165.878 111.446 170.274 111.446 178.172V178.179Z" fill="#3640E8"/>
<path d="M127.696 174.082V186.437C127.696 189.648 130.014 189.702 134.409 189.465V196.415C123.659 197.601 120.035 194.457 120.035 186.437V174.082H114.866V166.717H120.035V160.716L127.696 158.399V166.717H134.409V174.082H127.696Z" fill="#3640E8"/>
<path d="M154.318 190.298C157.285 190.298 159.663 189.052 160.97 187.331L167.148 190.895C164.357 194.932 159.899 197.248 154.197 197.248C144.218 197.248 137.918 190.42 137.918 181.566C137.918 172.713 144.272 165.885 153.6 165.885C162.392 165.885 168.631 172.835 168.631 181.566C168.631 182.698 168.509 183.707 168.333 184.716H145.939C147.008 188.638 150.274 190.298 154.311 190.298H154.318ZM160.97 178.776C160.022 174.501 156.811 172.773 153.607 172.773C149.509 172.773 146.717 174.968 145.824 178.776H160.97Z" fill="#3640E8"/>
<path d="M201.58 178.179V196.415H193.919V179.128C193.919 175.09 191.48 173.01 188.039 173.01C184.3 173.01 181.502 175.205 181.502 180.374V196.415H173.84V166.71H181.502V170.036C183.284 167.361 186.373 165.878 190.355 165.878C196.649 165.878 201.58 170.274 201.58 178.172V178.179Z" fill="#3640E8"/>
<path d="M217.831 174.082V186.437C217.831 189.648 220.148 189.702 224.544 189.465V196.415C213.793 197.601 210.17 194.457 210.17 186.437V174.082H205V166.717H210.17V160.716L217.831 158.399V166.717H224.544V174.082H217.831Z" fill="#3640E8"/>
<path d="M252.418 187.745C252.418 194.159 246.837 197.248 240.476 197.248C234.535 197.248 230.139 194.756 227.999 190.176L234.65 186.437C235.483 188.876 237.502 190.298 240.469 190.298C242.908 190.298 244.567 189.465 244.567 187.745C244.567 183.409 229.245 185.787 229.245 175.327C229.245 169.272 234.414 165.885 240.53 165.885C245.339 165.885 249.499 168.079 251.815 172.185L245.279 175.747C244.384 173.844 242.725 172.72 240.523 172.72C238.62 172.72 237.076 173.553 237.076 175.158C237.076 179.555 252.398 176.825 252.398 187.751L252.418 187.745Z" fill="#3640E8"/>
<path d="M287.358 166.718V208.296H279.697V192.913C277.557 195.643 274.414 197.248 270.071 197.248C262.112 197.248 255.575 190.42 255.575 181.566C255.575 172.713 262.112 165.885 270.071 165.885C274.407 165.885 277.557 167.49 279.697 170.22V166.718H287.358ZM279.697 181.566C279.697 176.574 276.195 173.193 271.501 173.193C266.806 173.193 263.243 176.581 263.243 181.566C263.243 186.552 266.745 189.939 271.501 189.939C276.256 189.939 279.697 186.552 279.697 181.566Z" fill="#3640E8"/>
<path d="M321.635 166.719V196.422H313.974V193.096C312.192 195.772 309.103 197.255 305.12 197.255C298.827 197.255 293.896 192.86 293.896 184.961V166.725H301.557V184.012C301.557 188.049 303.995 190.13 307.437 190.13C311.176 190.13 313.974 187.934 313.974 182.766V166.725H321.635V166.719Z" fill="#3640E8"/>
<path d="M358.675 166.718V196.422H351.014V192.919C348.873 195.596 345.668 197.255 341.334 197.255C333.435 197.255 326.898 190.427 326.898 181.574C326.898 172.72 333.435 165.892 341.334 165.892C345.668 165.892 348.88 167.558 351.014 170.227V166.725H358.675V166.718ZM351.014 181.566C351.014 176.574 347.511 173.195 342.756 173.195C338.001 173.195 334.559 176.581 334.559 181.566C334.559 186.553 338.061 189.939 342.756 189.939C347.45 189.939 351.014 186.553 351.014 181.566Z" fill="#3640E8"/>
<path d="M382.167 166.122V174.677C378.184 174.203 373.137 175.985 373.137 182.223V196.421H365.476V166.718H373.137V171.826C374.681 167.788 378.421 166.122 382.167 166.122Z" fill="#3640E8"/>
<path d="M401.04 190.298C404.006 190.298 406.384 189.052 407.691 187.331L413.869 190.895C411.078 194.932 406.621 197.248 400.917 197.248C390.939 197.248 384.64 190.42 384.64 181.566C384.64 172.713 390.994 165.885 400.321 165.885C409.114 165.885 415.353 172.835 415.353 181.566C415.353 182.698 415.231 183.707 415.055 184.716H392.66C393.73 188.638 396.995 190.298 401.032 190.298H401.04ZM407.691 178.776C406.743 174.501 403.532 172.773 400.328 172.773C396.229 172.773 393.439 174.968 392.545 178.776H407.691Z" fill="#3640E8"/>
</g>
</g>
<defs>
<clipPath id="clip0_1_422">
<rect width="420" height="213.77" fill="white"/>
</clipPath>
<clipPath id="clip1_1_422">
<rect width="420" height="213.77" fill="white"/>
</clipPath>
</defs>
</svg>
