<svg width="340" height="105" viewBox="0 0 340 105" fill="none" xmlns="http://www.w3.org/2000/svg">
<path d="M310.293 65.7888C314.654 65.7888 319.073 64.3159 322.302 61.7666C322.36 61.7099 322.36 61.6532 322.302 61.6532L319.13 57.8009C319.073 57.7442 319.017 57.7442 319.017 57.8009C316.354 59.6704 313.465 60.6335 310.406 60.6335C305.817 60.6335 303.041 58.4807 302.361 54.4584L302.304 54.0051H322.982V52.5888C322.982 44.9974 316.864 38.7656 309.386 38.709C309.329 38.709 309.273 38.709 309.215 38.709C305.137 38.709 301.511 40.0686 298.962 42.618C296.526 45.0541 295.166 48.5099 295.166 52.2489C295.223 60.4635 301.114 65.7888 310.293 65.7888ZM302.871 48.6231C303.834 45.6206 306.099 43.9776 309.215 43.9776C312.332 43.9776 314.541 45.6206 315.561 48.6231C315.674 48.9064 315.618 49.1896 315.448 49.4163C315.278 49.6429 314.994 49.8129 314.711 49.8129H303.777C303.494 49.8129 303.211 49.6429 303.041 49.4163C302.814 49.1896 302.758 48.9064 302.871 48.6231Z" fill="#0033FF"/>
<path d="M268.596 52.3612C268.596 60.0659 274.828 65.9011 283.156 65.9011C287.235 65.9011 290.974 64.4848 293.694 61.8789V61.7089L289.84 57.5166C288.368 59.3862 286.045 60.5191 283.609 60.5191C282.363 60.5191 281.173 60.2359 280.04 59.6694C279.983 59.6694 279.927 59.6127 279.869 59.5561L279.813 59.4995L279.7 59.4428C278.113 58.6496 276.811 57.2333 276.131 55.5338C275.961 55.1372 275.848 54.7406 275.735 54.2874C275.677 54.0608 275.621 53.8908 275.621 53.7209L275.564 53.4376C275.564 53.3243 275.508 53.1544 275.508 53.0411C275.508 52.8711 275.508 52.7011 275.508 52.5312C275.508 52.4179 275.508 52.3612 275.508 52.3612C275.508 52.1912 275.508 52.0213 275.508 51.8513V51.738C275.508 51.6814 275.508 51.6814 275.508 51.6248C275.621 50.7184 275.848 49.7552 276.244 48.9054C276.301 48.7921 276.357 48.6222 276.414 48.5089C277.151 47.0359 278.284 45.9595 279.644 45.223C280.833 44.5432 282.193 44.2033 283.609 44.2033C286.045 44.2033 288.311 45.2797 289.898 47.2059L293.75 42.9003C291.031 40.2943 287.235 38.8213 283.099 38.8213C274.828 38.8213 268.596 44.6565 268.596 52.3612Z" fill="#0033FF"/>
<path d="M264.744 64.6557V51.4556C264.517 45.4504 262.874 39.8984 252.847 39.8984C250.751 39.8984 248.882 40.1818 247.295 40.8049L246.729 41.0315V40.0118C246.729 39.9551 246.671 39.9551 246.671 39.9551H241.063C241.007 39.9551 241.007 40.0118 241.007 40.0118V64.6557C241.007 64.7122 241.063 64.7689 241.12 64.7689H247.578C247.635 64.7689 247.691 64.7122 247.691 64.6557V50.7757C247.691 49.9826 247.805 49.2461 247.975 48.5662C248.711 46.6401 250.694 45.2804 252.903 45.2238C255.057 45.2238 257.096 46.5834 257.833 48.5097C258.059 49.1895 258.116 49.926 258.116 50.7191V64.599C258.116 64.6556 258.173 64.7122 258.229 64.7122L264.744 64.6557C264.744 64.7122 264.688 64.7689 264.744 64.6557Z" fill="#0033FF"/>
<path d="M211.661 40.0118V53.2685C211.887 59.2736 213.53 64.8255 223.557 64.8255C233.755 64.8255 235.228 58.0273 235.455 52.9851V40.0118C235.455 39.9551 235.398 39.8984 235.341 39.8984H228.883C228.827 39.8984 228.769 39.9551 228.769 40.0118V53.8917C228.769 54.6848 228.656 55.4212 228.487 56.1011C227.75 58.0273 225.767 59.3869 223.557 59.4436C221.405 59.4436 219.365 58.0839 218.629 56.1577C218.402 55.4779 218.345 54.7414 218.345 53.9482V40.0118C218.345 39.9551 218.289 39.8984 218.232 39.8984H211.773C211.717 39.8984 211.661 39.9551 211.661 40.0118Z" fill="#0033FF"/>
<path d="M192.909 38.709C184.637 38.709 178.348 44.5442 178.348 52.2489C178.348 59.9536 184.58 65.7888 192.909 65.7888C201.236 65.7888 207.525 59.9536 207.525 52.2489C207.525 44.4875 201.236 38.709 192.909 38.709ZM192.909 60.1803C188.603 60.1803 185.317 56.7811 185.317 52.2489C185.317 47.7733 188.659 44.3175 192.909 44.3175C197.214 44.3175 200.557 47.83 200.557 52.2489C200.557 56.6678 197.157 60.1803 192.909 60.1803Z" fill="#0033FF"/>
<path d="M163.165 65.3351C170.02 65.3351 175.232 59.6699 175.232 52.1918C175.232 44.7704 169.964 38.9351 163.165 38.9351C159.54 38.9351 156.254 40.408 153.932 43.1274L153.195 43.9205V27.378C153.195 27.3213 153.138 27.2646 153.081 27.2646H146.623C146.566 27.2646 146.51 27.3213 146.51 27.378V64.6554C146.51 64.712 146.566 64.7687 146.623 64.7687H152.685C152.742 64.7687 152.798 64.712 152.798 64.6554V60.0098L153.534 60.8597C155.857 63.7489 159.257 65.3351 163.165 65.3351ZM161.749 44.6004C166.055 44.6004 169.228 47.7729 169.228 52.1351C169.228 56.4408 165.999 59.6699 161.749 59.6699C157.501 59.6699 154.158 56.3841 154.158 52.1918C154.158 47.8862 157.444 44.6004 161.749 44.6004Z" fill="#0033FF"/>
<path d="M141.298 64.7689C141.354 64.7689 141.411 64.7122 141.411 64.6557V51.4556C141.185 45.4504 139.542 39.8984 129.514 39.8984C127.418 39.8984 125.548 40.1818 123.962 40.8049L123.396 41.0315V40.0118C123.396 39.9551 123.339 39.9551 123.283 39.9551H117.674C117.617 39.9551 117.617 40.0118 117.617 40.0118V64.6557C117.617 64.7122 117.674 64.7689 117.731 64.7689H124.188C124.246 64.7689 124.302 64.7122 124.302 64.6557V50.7757C124.302 49.9826 124.415 49.2461 124.586 48.5662C125.322 46.6401 127.305 45.2804 129.514 45.2238C131.667 45.2238 133.706 46.5834 134.443 48.5097C134.67 49.1895 134.726 49.926 134.726 50.7191V64.599C134.726 64.6556 134.783 64.7122 134.839 64.7122H141.298V64.7689Z" fill="#0033FF"/>
<path d="M88.7244 40.0118V53.2685C88.951 59.2736 90.5939 64.8255 100.621 64.8255C110.819 64.8255 112.292 58.0273 112.519 52.9851V40.0118C112.519 39.9551 112.462 39.8984 112.405 39.8984H105.947C105.89 39.8984 105.833 39.9551 105.833 40.0118V53.8917C105.833 54.6848 105.72 55.4212 105.55 56.1011C104.813 58.0273 102.831 59.3869 100.621 59.4436C98.469 59.4436 96.4291 58.0839 95.6926 56.1577C95.466 55.4779 95.4093 54.7414 95.4093 53.9482V40.0118C95.4093 39.9551 95.3527 39.8984 95.2961 39.8984H88.8377C88.7244 39.8984 88.7244 39.9551 88.7244 40.0118Z" fill="#0033FF"/>
<path d="M48.048 22.166C31.3922 22.166 17.9089 35.6493 17.9089 52.3051C17.9089 68.961 31.3922 82.4442 48.048 82.4442C64.7039 82.4442 78.1872 68.961 78.1872 52.3051C78.1872 35.6493 64.7039 22.166 48.048 22.166ZM46.9716 64.1455L44.7622 70.6605C44.7056 70.8872 44.5922 71.0571 44.4789 71.227C44.1957 71.6803 43.8557 72.0202 43.4025 72.2468C43.0059 72.4734 42.5527 72.5867 42.0995 72.5867C41.8163 72.5867 41.4763 72.5301 41.1931 72.4168C39.9467 71.9636 39.1536 70.7172 39.3236 69.4709C33.0917 66.2983 28.8428 59.7833 28.8428 52.3051C28.8428 41.6545 37.4541 32.9867 48.1614 32.9867C49.4077 32.9867 50.5974 33.0999 51.7871 33.3265C52.4669 32.2501 53.8266 31.7403 55.0729 32.1368C55.7528 32.3635 56.2626 32.8167 56.6025 33.3832C56.8858 33.8931 57.0557 34.4596 56.9991 35.0827C56.9991 35.3094 56.9425 35.5359 56.8858 35.7059L54.6763 42.221L46.9716 64.1455ZM49.4077 71.567L52.0704 63.5223C56.6592 61.8794 59.945 57.5171 59.945 52.3051C59.945 49.8691 59.2086 47.5463 57.9056 45.6768L60.5682 37.6321C64.7039 41.1446 67.3665 46.4133 67.3665 52.3051C67.3098 62.5026 59.4352 70.8305 49.4077 71.567Z" fill="#0033FF"/>
<path d="M36.1509 52.3052C36.1509 56.4975 38.3604 60.1799 41.6462 62.3327L49.1244 40.4649C48.7844 40.4082 48.3878 40.4082 48.0479 40.4082C41.4762 40.4082 36.1509 45.7335 36.1509 52.3052Z" fill="#0033FF"/>
</svg>
