<svg width="340" height="106" viewBox="0 0 340 106" fill="none" xmlns="http://www.w3.org/2000/svg">
<g clip-path="url(#clip0_1_502)">
<path d="M232.433 47.7041C232.433 42.3398 229.158 38.4512 222.881 38.4512H202.597V66.2487H209.267V56.7593H217.159L224.895 66.2487H232.41V65.6359L224.895 56.6C229.584 55.6271 232.433 52.1617 232.433 47.7041ZM222.133 51.1421H209.267V44.2086H222.133C224.512 44.2086 226.042 45.4837 226.042 47.685C226.042 49.8863 224.566 51.1421 222.133 51.1421Z" fill="black"/>
<path d="M333.182 38.4512H326.947V48.9903H310.137V38.4512H303.388V66.2487H310.137V55.3028H326.947V66.2487H333.182V38.4512Z" fill="black"/>
<path d="M184.743 38.4512L177.326 61.8406H176.919L169.459 38.4512H157.582V66.2487H163.934V43.4143H164.331L171.748 66.2487H181.982L189.441 43.4143H189.834V66.2487H196.386V38.4512H184.743Z" fill="black"/>
<path d="M112.16 49.8255C109.804 49.5782 105.409 49.1742 103.052 48.9297C100.695 48.6851 99.3921 47.998 99.3921 46.4564C99.3921 44.9146 100.815 43.7302 106.556 43.7302C111.622 43.7302 116.298 44.8212 120.378 46.8027V40.5808C116.296 38.6241 111.814 37.665 106.212 37.665C98.3547 37.665 92.9139 40.971 92.9139 46.5608C92.9139 51.2931 96.1066 53.8763 102.511 54.5798C104.83 54.8354 108.771 55.1844 111.521 55.4126C114.517 55.6627 115.407 56.5832 115.407 57.9573C115.407 59.8426 113.307 61.0133 107.988 61.0133C102.667 61.0133 97.0897 59.2325 93.1898 56.74V63.1403C96.3224 65.2482 101.747 67.0372 107.788 67.0372C116.372 67.0372 121.881 63.7065 121.881 57.743C121.881 53.2552 118.942 50.5319 112.16 49.8228V49.8255Z" fill="black"/>
<path d="M126.248 38.4512V66.2487H152.016V60.5682H132.6V54.9291H151.686V49.2926H132.6V44.1289H152.016V38.4512H126.248Z" fill="black"/>
<path d="M289.604 49.8255C287.246 49.5782 282.852 49.1742 280.495 48.9297C278.176 48.6906 276.835 47.998 276.835 46.4564C276.835 44.9146 278.258 43.7302 283.999 43.7302C289.065 43.7302 293.742 44.8212 297.822 46.8027V40.5808C293.739 38.6241 289.257 37.665 283.655 37.665C275.798 37.665 270.357 40.971 270.357 46.5608C270.357 51.2931 273.55 53.8763 279.954 54.5798C282.273 54.8354 286.215 55.1844 288.964 55.4126C291.96 55.6627 292.851 56.5832 292.851 57.9573C292.851 59.8426 290.751 61.0133 285.43 61.0133C280.11 61.0133 274.533 59.2325 270.633 56.74V63.1403C273.766 65.2482 279.19 67.0372 285.231 67.0372C293.815 67.0372 299.324 63.7065 299.324 57.743C299.324 53.2552 296.385 50.5319 289.604 49.8228V49.8255Z" fill="black"/>
<path d="M259.148 38.4512V52.6811C259.148 58.073 255.893 61.0327 250.999 61.0327C246.105 61.0327 242.849 58.1169 242.849 52.5986V38.4512H236.218V51.9666C236.218 62.0605 242.486 67.0429 251.094 67.0429C259.703 67.0429 265.775 62.2557 265.775 52.2963V38.4512H259.143H259.148Z" fill="black"/>
<path d="M70.0622 52.1878C70.0622 53.5427 69.3876 53.7515 67.678 53.7515C65.8644 53.7515 65.5531 53.4383 65.3455 52.0833C64.9823 48.5905 62.6498 45.617 58.7143 45.3065C57.4716 45.2021 57.1603 44.7321 57.1603 43.1684C57.1603 41.7091 57.3678 41.0303 58.5067 41.0303C65.3455 41.0303 70.0622 46.5569 70.0622 52.1878ZM80.0118 52.1878C80.0118 41.7064 72.9627 30.6533 56.6932 30.6533H24.3481C23.6954 30.6533 23.2912 30.9968 23.2912 31.5959C23.2912 31.923 23.5343 32.217 23.7555 32.3902C24.9408 33.3273 26.6669 34.3578 28.9829 35.523C31.2279 36.6525 32.9622 37.3862 34.7238 38.1063C35.4503 38.4031 35.7398 38.7274 35.7398 39.1616C35.7398 39.7277 35.3438 40.0877 34.5244 40.0877H8.85156C8.09229 40.0877 7.72632 40.5796 7.72632 41.0771C7.72632 41.5003 7.8738 41.8383 8.23158 42.212C10.3155 44.3995 13.6284 47.0378 18.4707 50.0855C22.7149 52.7566 27.9588 55.6395 32.1182 57.6457C32.8175 57.9836 33.0605 58.3739 33.0441 58.7779C33.0251 59.2451 32.659 59.6407 31.8506 59.6407H20.0848C19.4157 59.6407 19.0442 59.9953 19.0442 60.5394C19.0442 60.8417 19.2873 61.2265 19.6041 61.5177C22.2807 63.9609 26.5604 66.6321 32.263 69.0752C39.8693 72.3345 47.6121 74.2939 56.3082 74.2939C72.7852 74.2939 80.0118 61.886 80.0118 52.1878ZM58.5067 67.047C50.4225 67.047 43.6875 60.424 43.6875 52.1878C43.6875 43.9516 50.4225 37.5374 58.5067 37.5374C66.5909 37.5374 73.2741 44.0561 73.2741 52.1878C73.2741 60.3196 66.7957 67.047 58.5067 67.047Z" fill="#EE7326"/>
</g>
<defs>
<clipPath id="clip0_1_502">
<rect width="340" height="105.58" fill="white"/>
</clipPath>
</defs>
</svg>
