<svg width="340" height="105" viewBox="0 0 340 105" fill="none" xmlns="http://www.w3.org/2000/svg">
<g clip-path="url(#clip0_1_453)">
<g clip-path="url(#clip1_1_453)">
<path d="M117.448 44.198C117.934 43.8094 118.419 43.3237 118.711 42.838C120.168 41.0895 121.139 39.0496 121.625 36.9126C122.305 33.4156 121.333 29.8214 118.905 27.1987C116.574 24.7702 113.659 23.7988 108.802 23.7988H89.2775L86.1691 41.2838H77.718L79.9522 50.3177H84.6149L81.1179 70.3284H103.751C109.191 70.3284 113.271 68.9684 116.671 66.1514C119.682 63.5286 121.625 59.9345 122.208 56.0489C122.985 52.2605 121.819 48.2778 119.099 45.5579C118.613 44.878 118.031 44.4894 117.448 44.198ZM98.7972 32.8327H106.277C108.9 32.8327 109.774 33.5127 110.357 34.1927C110.94 34.9698 111.134 35.9412 110.94 36.9126C110.745 37.9811 110.162 39.0496 109.288 39.7296C108.414 40.5067 107.345 41.1867 104.625 41.1867H97.4372L98.7972 32.8327ZM111.425 55.6604C111.134 57.1175 110.357 58.4774 109.288 59.4488C107.928 60.7116 106.18 61.2944 103.557 61.2944H93.8431L95.3973 52.3577L95.7859 50.3177H105.694C108.997 50.3177 110.065 51.2891 110.648 52.0662C111.425 53.0376 111.619 54.3976 111.425 55.6604Z" fill="url(#paint0_linear_1_453)"/>
<path d="M55.6675 23.7988L24.2916 70.3284H36.8225L44.2051 59.3517H62.4672L65.1871 70.3284H77.718L66.0613 23.7988H55.6675ZM50.3248 50.3177L57.6103 39.5353L60.233 50.3177H50.3248Z" fill="url(#paint1_linear_1_453)"/>
<path d="M181.074 23.7988H137.556L136.196 31.3757H153.681L146.784 70.3284H155.332L162.229 31.3757H179.714L181.074 23.7988Z" fill="url(#paint2_linear_1_453)"/>
<path d="M199.725 41.1867C197.199 36.9126 193.216 34.7755 187.679 34.7755C182.24 34.6784 176.994 36.9126 173.303 40.9924C169.514 45.0722 167.377 50.4149 167.474 55.9518C167.28 60.0316 168.64 64.0143 171.36 67.1227C173.983 69.9398 177.577 71.2997 182.24 71.2997C187.388 71.3969 192.245 69.1627 195.45 65.18L194.77 70.2312H202.736L208.856 35.6498H200.696L199.725 41.1867ZM194.188 60.2259C191.759 62.7515 188.359 64.1114 184.862 64.0143C179.131 64.0143 175.731 60.6144 175.731 54.9804C175.634 51.5805 176.994 48.2778 179.325 45.8493C181.754 43.3237 185.154 41.9638 188.651 42.0609C194.479 42.0609 197.879 45.5579 197.879 51.0948C197.976 54.4947 196.616 57.7974 194.188 60.2259Z" fill="url(#paint3_linear_1_453)"/>
<path d="M230.518 40.9927C236.152 40.9927 238.289 42.4498 238.386 45.5583V45.9468L245.671 42.6441C244.991 37.01 239.746 34.6787 231.198 34.6787C220.027 34.6787 213.13 38.5643 213.13 46.7239C213.13 52.358 216.53 55.0779 223.718 55.6607L231.003 56.3407C234.403 56.6321 235.86 57.5064 235.86 59.8377C235.86 63.2375 232.655 64.8889 226.243 64.8889C220.415 64.8889 218.084 63.529 217.89 60.3234V60.032C217.89 60.032 210.507 63.2375 210.507 63.3347C211.187 69.0659 216.53 71.2029 225.078 71.2029C237.026 71.2029 244.506 67.2202 244.506 58.672C244.506 53.038 241.3 50.8038 233.82 50.0267L226.632 49.3467C223.329 49.0553 221.678 47.8896 221.678 45.6554C221.581 42.6441 224.495 40.9927 230.518 40.9927Z" fill="url(#paint4_linear_1_453)"/>
<path d="M306.966 35.747L290.549 61.8774L283.653 35.747H266.168L267.916 25.8389L258.785 29.8216L257.716 35.747H251.111L249.751 42.8382H256.454L253.928 57.7976C252.568 65.6658 256.259 71.2999 265.293 71.2999H272.287L270.15 63.723H267.625C262.962 63.723 261.408 61.7803 262.282 57.2147C263.156 52.6492 264.808 42.9353 264.808 42.9353H277.144L284.721 71.397L278.601 81.1109H287.344L315.708 35.747H306.966Z" fill="url(#paint5_linear_1_453)"/>
<path opacity="0.8" d="M64.2158 66.1513L75.3868 61.1972L74.9011 59.3516H62.4673L64.2158 66.1513Z" fill="#004052"/>
<path opacity="0.8" d="M83.255 57.6999L95.3973 52.2602L95.7858 50.3174H84.6149L83.255 57.6999Z" fill="#004052"/>
</g>
</g>
<defs>
<linearGradient id="paint0_linear_1_453" x1="-21.3825" y1="91.8656" x2="350.135" y2="-46.7225" gradientUnits="userSpaceOnUse">
<stop stop-color="#006C8A"/>
<stop offset="0.25" stop-color="#217981"/>
<stop offset="0.5" stop-color="#009CB2"/>
<stop offset="0.75" stop-color="#00D4D4"/>
<stop offset="1" stop-color="#00F3F3"/>
</linearGradient>
<linearGradient id="paint1_linear_1_453" x1="-25.3035" y1="81.3739" x2="346.214" y2="-57.2238" gradientUnits="userSpaceOnUse">
<stop stop-color="#006C8A"/>
<stop offset="0.25" stop-color="#217981"/>
<stop offset="0.5" stop-color="#009CB2"/>
<stop offset="0.75" stop-color="#00D4D4"/>
<stop offset="1" stop-color="#00F3F3"/>
</linearGradient>
<linearGradient id="paint2_linear_1_453" x1="-15.5535" y1="107.487" x2="355.954" y2="-31.1107" gradientUnits="userSpaceOnUse">
<stop stop-color="#006C8A"/>
<stop offset="0.25" stop-color="#217981"/>
<stop offset="0.5" stop-color="#009CB2"/>
<stop offset="0.75" stop-color="#00D4D4"/>
<stop offset="1" stop-color="#00F3F3"/>
</linearGradient>
<linearGradient id="paint3_linear_1_453" x1="-8.0306" y1="127.668" x2="363.487" y2="-10.9294" gradientUnits="userSpaceOnUse">
<stop stop-color="#006C8A"/>
<stop offset="0.25" stop-color="#217981"/>
<stop offset="0.5" stop-color="#009CB2"/>
<stop offset="0.75" stop-color="#00D4D4"/>
<stop offset="1" stop-color="#00F3F3"/>
</linearGradient>
<linearGradient id="paint4_linear_1_453" x1="-3.57998" y1="139.582" x2="367.927" y2="0.984382" gradientUnits="userSpaceOnUse">
<stop stop-color="#006C8A"/>
<stop offset="0.25" stop-color="#217981"/>
<stop offset="0.5" stop-color="#009CB2"/>
<stop offset="0.75" stop-color="#00D4D4"/>
<stop offset="1" stop-color="#00F3F3"/>
</linearGradient>
<linearGradient id="paint5_linear_1_453" x1="2.57988" y1="156.098" x2="374.088" y2="17.5005" gradientUnits="userSpaceOnUse">
<stop stop-color="#006C8A"/>
<stop offset="0.25" stop-color="#217981"/>
<stop offset="0.5" stop-color="#009CB2"/>
<stop offset="0.75" stop-color="#00D4D4"/>
<stop offset="1" stop-color="#00F3F3"/>
</linearGradient>
<clipPath id="clip0_1_453">
<rect width="340" height="104.91" fill="white"/>
</clipPath>
<clipPath id="clip1_1_453">
<rect width="340" height="104.91" fill="white"/>
</clipPath>
</defs>
</svg>
