<svg width="340" height="105" viewBox="0 0 340 105" fill="none" xmlns="http://www.w3.org/2000/svg">
<g clip-path="url(#clip0_1_465)">
<mask id="mask0_1_465" style="mask-type:luminance" maskUnits="userSpaceOnUse" x="5" y="37" width="261" height="26">
<path d="M265.625 37.7441H5.84717V62.3221H265.625V37.7441Z" fill="white"/>
</mask>
<g mask="url(#mask0_1_465)">
<path d="M20.79 56.0293C16.7177 56.0293 13.959 53.8549 13.959 50.0331C13.959 46.2114 16.7177 44.0369 20.79 44.0369C23.1245 44.0369 25.0357 44.7919 26.4241 46.3617C26.8642 46.8594 27.5789 47.0637 28.1674 46.7568L32.3933 44.5532C33.1379 44.1649 33.4107 43.2225 32.8706 42.5783C30.5247 39.78 26.1952 37.7441 20.8886 37.7441C11.89 37.7441 5.84717 42.159 5.84717 50.0331C5.84717 57.9073 11.89 62.3222 20.593 62.3222C26.1732 62.3222 30.5693 60.3001 32.965 57.4519C33.5061 56.8086 33.2385 55.8647 32.4963 55.4721L28.2973 53.2505C27.7099 52.9398 26.9927 53.1404 26.5546 53.641C25.0948 55.3084 23.146 56.0293 20.79 56.0293Z" fill="#FF5721"/>
<path d="M58.3195 38.502C57.5098 38.502 56.8531 39.1605 56.8531 39.9728V46.7056H44.8004V39.9728C44.8004 39.1605 44.144 38.502 43.3343 38.502H38.2533C37.4435 38.502 36.7871 39.1605 36.7871 39.9728V60.0937C36.7871 60.9057 37.4435 61.5644 38.2533 61.5644H43.3343C44.144 61.5644 44.8004 60.9057 44.8004 60.0937V53.0313H56.8531V60.0937C56.8531 60.9057 57.5098 61.5644 58.3195 61.5644H63.4004C64.2102 61.5644 64.8668 60.9057 64.8668 60.0937V39.9728C64.8668 39.1605 64.2102 38.502 63.4004 38.502H58.3195Z" fill="#FF5721"/>
<path d="M77.3349 61.5644C78.1447 61.5644 78.8008 60.9057 78.8008 60.0937V39.9728C78.8008 39.1605 78.1447 38.502 77.3349 38.502H72.2536C71.4437 38.502 70.7876 39.1605 70.7876 39.9728V60.0937C70.7876 60.9057 71.4437 61.5644 72.2536 61.5644H77.3349Z" fill="#FF5721"/>
<path d="M92.3504 55.4034V39.9728C92.3504 39.1605 91.6937 38.502 90.8844 38.502H85.803C84.9933 38.502 84.337 39.1605 84.337 39.9728V60.0937C84.337 60.9057 84.9933 61.5644 85.803 61.5644H105.63C106.44 61.5644 107.096 60.9057 107.096 60.0937V56.8743C107.096 56.0619 106.44 55.4034 105.63 55.4034H92.3504Z" fill="#FF5721"/>
<path d="M117.391 61.5644C118.201 61.5644 118.857 60.9057 118.857 60.0937V39.9728C118.857 39.1605 118.201 38.502 117.391 38.502H112.31C111.5 38.502 110.844 39.1605 110.844 39.9728V60.0937C110.844 60.9057 111.5 61.5644 112.31 61.5644H117.391Z" fill="#FF5721"/>
<path d="M150.604 38.502H135.945C135.135 38.502 134.478 39.1605 134.478 39.9728V60.0937C134.478 60.9057 135.135 61.5644 135.945 61.5644H141.025C141.835 61.5644 142.491 60.9057 142.491 60.0937V55.1399H150.604C157.205 55.1399 161.055 52.4053 161.055 46.8044C161.055 41.2365 157.205 38.502 150.604 38.502ZM149.946 49.7696H142.491V44.2676H149.946C152.016 44.2676 153.493 44.9594 153.493 47.0021C153.493 49.0448 152.016 49.7696 149.946 49.7696Z" fill="#FF5721"/>
<path d="M172.022 61.5644C172.831 61.5644 173.488 60.9057 173.488 60.0937V39.9728C173.488 39.1605 172.831 38.502 172.022 38.502H166.94C166.13 38.502 165.475 39.1605 165.475 39.9728V60.0937C165.475 60.9057 166.13 61.5644 166.94 61.5644H172.022Z" fill="#FF5721"/>
<path d="M195.149 38.502H180.49C179.68 38.502 179.025 39.1605 179.025 39.9728V60.0937C179.025 60.9057 179.68 61.5644 180.49 61.5644H185.571C186.381 61.5644 187.038 60.9057 187.038 60.0937V55.1399H195.149C201.75 55.1399 205.601 52.4053 205.601 46.8044C205.601 41.2365 201.75 38.502 195.149 38.502ZM194.492 49.7696H187.038V44.2676H194.492C196.561 44.2676 198.039 44.9594 198.039 47.0021C198.039 49.0448 196.561 49.7696 194.492 49.7696Z" fill="#FF5721"/>
<path d="M216.953 55.7658V52.5701H229.38C230.189 52.5701 230.845 51.9116 230.845 51.0992V48.7036C230.845 47.8912 230.189 47.2327 229.38 47.2327H216.953V44.3005H232.533C233.342 44.3005 233.998 43.642 233.998 42.8297V39.9728C233.998 39.1605 233.342 38.502 232.533 38.502H210.57C209.76 38.502 209.105 39.1605 209.105 39.9728V60.0937C209.105 60.9057 209.76 61.5644 210.57 61.5644H232.894C233.704 61.5644 234.359 60.9057 234.359 60.0937V57.2366C234.359 56.4244 233.704 55.7658 232.894 55.7658H216.953Z" fill="#FF5721"/>
<path d="M263.702 61.5644C264.956 61.5644 265.631 60.0879 264.813 59.1344L260.428 54.0197C263.876 52.8666 265.625 50.4286 265.625 46.6397C265.625 41.1376 261.315 38.502 255.173 38.502H240.316C239.507 38.502 238.851 39.1605 238.851 39.9728V60.0937C238.851 60.9057 239.507 61.5644 240.316 61.5644H245.332C246.142 61.5644 246.798 60.9057 246.798 60.0937V54.7774H252.184L256.887 60.495C257.444 61.172 258.274 61.5644 259.149 61.5644H263.702ZM246.798 49.4072V44.2676H254.516C256.585 44.2676 258.062 44.8606 258.062 46.8373C258.062 48.8142 256.585 49.4072 254.516 49.4072H246.798Z" fill="#FF5721"/>
</g>
<mask id="mask1_1_465" style="mask-type:luminance" maskUnits="userSpaceOnUse" x="246" y="15" width="88" height="88">
<path d="M333.257 15.4004H246.365V102.093H333.257V15.4004Z" fill="white"/>
</mask>
<g mask="url(#mask1_1_465)">
<path d="M321.788 39.9056C322.642 40.33 323.694 40.0905 324.172 39.2656C324.635 38.4647 324.356 37.4519 323.563 36.9737C322.594 36.3894 321.592 35.8543 320.56 35.3712C319.629 34.935 319.159 33.8664 319.469 32.8873C321.095 27.7449 321.413 22.2156 320.408 16.9214C320.141 15.5144 318.432 15.0824 317.524 16.1916C317.276 16.4935 317.035 16.8001 316.799 17.1111C316.571 17.4104 316.447 17.7742 316.427 18.1493C316.162 22.9895 314.837 27.5481 312.682 31.599C312.314 32.2889 311.539 32.6431 310.762 32.5469C309.018 32.3305 307.255 32.2536 305.498 32.3166C305.006 32.3342 304.585 32.6667 304.413 33.1268C304.123 33.9008 304.617 34.7728 305.438 34.8846C311.115 35.6579 316.659 37.3578 321.788 39.9056Z" fill="#FF5721"/>
<path fill-rule="evenodd" clip-rule="evenodd" d="M302.663 60.9384C301.975 61.9881 302.448 63.4172 303.654 63.7702C308.07 65.0621 312.563 65.8455 317.055 66.1413C318.998 66.2695 320.838 65.2882 321.839 63.6223C323.093 61.5394 324.26 59.3992 325.335 57.2057C326.099 55.6476 326.817 54.063 327.487 52.4533C328.279 50.5508 327.649 48.3557 325.934 47.2091C317.738 41.7315 308.195 38.6517 298.231 38.341C295.978 38.2707 294.117 39.9651 293.67 42.1696C293.552 42.7543 293.428 43.3368 293.297 43.9171C293.291 43.9486 293.283 43.98 293.276 44.0114V44.0127C293.263 44.0753 293.248 44.138 293.233 44.2007C293.194 44.3746 293.154 44.5495 293.112 44.7233C292.868 45.7614 292.607 46.7924 292.324 47.8154C291.568 50.5643 290.678 53.2584 289.661 55.8893C289.326 56.757 289.652 57.7475 290.465 58.2048C291.821 58.9689 293.206 59.6834 294.616 60.3458C295.538 60.7789 296.629 60.3709 297.045 59.4435C297.687 58.0154 298.286 56.5686 298.841 55.1042C299.628 53.0248 300.329 50.9109 300.937 48.7643C301.28 47.5549 301.594 46.3354 301.875 45.1069C301.995 44.6014 302.45 44.242 302.97 44.2679C303.079 44.2733 303.187 44.2791 303.296 44.2854C305.446 44.4076 307.124 44.5182 309.153 45.5778C309.748 45.8894 309.982 46.6082 309.737 47.2338C307.791 52.2143 305.504 56.5985 302.663 60.9384Z" fill="#FF5721"/>
<path d="M291.824 65.3593C292.832 65.8607 293.224 67.1129 292.618 68.0611C290.718 71.0381 288.629 73.895 286.377 76.6155C285.745 77.3784 286.737 78.4678 287.485 77.8194C290.701 75.031 293.726 72.0239 296.524 68.8172C297.051 68.213 297.897 67.9958 298.654 68.2658C303.363 69.9483 308.186 71.0328 313.024 71.5467C314.269 71.679 314.903 73.1397 314.079 74.08C310.45 78.2193 306.427 82.0061 302.069 85.3823C300.273 86.7734 297.989 87.3959 295.746 87.0317C289.317 85.9887 283.081 83.7843 277.439 80.5377C276.438 79.9613 276.244 78.6193 276.981 77.7305C277.357 77.2765 277.73 76.8184 278.096 76.3568C281.067 72.621 283.722 68.6389 286.028 64.4633C286.556 63.5075 287.775 63.1705 288.726 63.7108C289.743 64.2886 290.776 64.8383 291.824 65.3593Z" fill="#FF5721"/>
<path d="M273.453 84.5535C272.7 84.0602 271.703 84.1352 271.043 84.7443C267.56 87.9506 263.817 90.8722 259.855 93.4645C257.681 94.8878 255.442 96.2119 253.148 97.4316C250.943 98.6027 251.569 102.003 254.064 101.93C262.917 101.67 271.727 100.057 280.084 97.113C281.969 96.4488 283.822 95.7213 285.644 94.932C286.752 94.4526 287.845 93.9511 288.927 93.427C289.818 92.9958 289.653 91.686 288.698 91.4236C283.299 89.9396 278.135 87.6217 273.453 84.5535Z" fill="#FF5721"/>
</g>
</g>
<defs>
<clipPath id="clip0_1_465">
<rect width="340" height="104.61" fill="white"/>
</clipPath>
</defs>
</svg>
