<svg width="340" height="106" viewBox="0 0 340 106" fill="none" xmlns="http://www.w3.org/2000/svg">
<g clip-path="url(#clip0_1_489)">
<g clip-path="url(#clip1_1_489)">
<path d="M42.4738 52.1844L60.2662 80.141C60.6942 80.7849 61.4433 81.1604 62.2193 81.1336H68.8278C70.0586 81.1604 71.0752 80.1678 71.1021 78.9068C71.1021 78.8799 71.1021 78.8799 71.1021 78.8531V19.64C71.1021 18.3789 70.0586 17.3594 68.8011 17.3863C68.1054 17.3863 67.4633 17.7082 67.0352 18.2448L42.4738 49.4745C41.9387 50.2795 41.9387 51.3527 42.4738 52.1844Z" fill="#5757F5"/>
<path d="M22.4609 81.1336H34.2065C35.4372 81.1604 36.4539 80.1678 36.4806 78.9067C36.4806 78.8799 36.4806 78.8799 36.4806 78.853V63.8284C36.4539 62.5674 35.4104 61.5479 34.1529 61.5747C33.4841 61.5747 32.8419 61.8967 32.4139 62.4332L20.6682 77.4579C19.9191 78.4774 20.1332 79.9263 21.1498 80.6775C21.5244 80.9726 21.9793 81.1336 22.4609 81.1336Z" fill="#5757F5"/>
<path d="M232.25 47.3542C232.116 47.1932 231.955 47.0322 231.821 46.8981L231.58 46.6834L231.447 46.5761C230.885 46.0932 230.27 45.6908 229.628 45.342C228.932 44.9127 228.182 44.5639 227.406 44.2956C226.631 44.0004 225.801 43.7858 224.971 43.6517C222.832 43.2761 220.664 43.3834 218.577 43.9736C217.346 44.3224 216.142 44.8322 215.019 45.4761C213.922 46.12 212.905 46.8981 211.996 47.8103C211.086 48.7225 210.31 49.7421 209.641 50.8152C208.973 51.9153 208.437 53.0957 208.089 54.3568C207.367 56.9324 207.367 59.669 208.089 62.2447C208.437 63.4789 208.973 64.6594 209.641 65.7594C210.31 66.8594 211.112 67.8521 211.996 68.7643C212.905 69.6765 213.922 70.4546 215.019 71.0985C216.142 71.7156 217.32 72.2254 218.55 72.601C220.691 73.2448 222.938 73.3522 225.132 72.923C225.962 72.7888 226.791 72.5473 227.593 72.2254C228.343 71.9034 229.066 71.5546 229.787 71.1253C230.484 70.7229 231.152 70.24 231.794 69.757C231.981 69.596 232.142 69.4351 232.303 69.2472L232.383 69.1667C232.543 68.9789 232.651 68.7643 232.731 68.5496L232.757 68.3619C232.784 68.0668 232.704 67.7716 232.543 67.5033L232.464 67.396C232.409 67.3155 232.356 67.2082 232.276 67.1277L232.089 66.8594C231.714 66.3496 231.34 65.8131 230.965 65.357C230.804 65.1691 230.59 65.0082 230.376 64.9277C230.136 64.8472 229.895 64.8472 229.681 64.9277C229.359 65.0618 229.066 65.2765 228.797 65.5448L228.45 65.8399C228.102 66.1082 227.942 66.2959 227.46 66.6447C227.032 66.9667 226.577 67.235 226.096 67.4765C225.587 67.7448 225.026 67.9326 224.437 68.0668C222.563 68.4691 220.583 68.2814 218.818 67.4765C217.694 66.9667 216.651 66.2424 215.795 65.357C214.912 64.4447 214.19 63.3984 213.681 62.2178C212.611 59.8032 212.611 57.0666 213.681 54.6519C214.19 53.4714 214.885 52.3982 215.795 51.486C216.678 50.6006 217.721 49.8762 218.845 49.3128C220.477 48.5347 222.323 48.32 224.089 48.6957C224.678 48.8298 225.266 49.0176 225.828 49.2323C226.363 49.4738 226.872 49.7421 227.379 50.0372C228.424 50.6542 229.573 52.3982 230.724 51.003L232.356 48.803C232.517 48.5883 232.57 48.32 232.517 48.0518C232.49 47.8103 232.409 47.5689 232.25 47.3542Z" fill="#242A35"/>
<path d="M131.542 70.8308L113.616 29.9692C113.375 29.352 112.786 28.9497 112.118 28.9229H109.255C108.586 28.9229 107.997 29.3252 107.757 29.9155L89.7771 70.804C89.5363 71.3138 89.5631 71.9041 89.8841 72.3869C90.1784 72.8699 90.7135 73.165 91.2754 73.165H93.9242C94.593 73.1919 95.1817 72.7894 95.4225 72.1723L99.7301 62.0844H121.509L125.79 72.1723C126.03 72.7894 126.646 73.1919 127.315 73.2187H129.911C130.445 73.2455 130.98 73.004 131.301 72.5748C131.676 72.0651 131.756 71.4211 131.542 70.8308ZM102.031 56.8525L102.111 56.6916L110.753 36.5424L119.422 56.8525H102.031Z" fill="#242A35"/>
<path d="M295.526 53.7671C295.071 52.1842 294.375 50.6818 293.466 49.3402C292.797 48.4281 291.994 47.5963 291.138 46.8719C290.309 46.1475 289.372 45.5304 288.355 45.1011C287.365 44.6182 286.322 44.2158 285.252 43.9475C282.871 43.3572 280.355 43.4109 277.974 44.0817C276.77 44.4304 275.593 44.9133 274.523 45.5841C273.453 46.2549 272.463 47.0329 271.579 47.9451C270.697 48.8305 269.974 49.85 269.386 50.9501C268.77 52.0769 268.289 53.2843 267.967 54.5184C267.406 56.5038 267.299 58.5697 267.647 60.6087C267.727 61.4136 267.888 62.1917 268.102 62.9429C268.556 64.5259 269.252 66.0283 270.161 67.3966C270.831 68.3089 271.634 69.1406 272.49 69.865C273.319 70.5894 274.256 71.2065 275.272 71.6625C276.262 72.1455 277.305 72.548 278.375 72.8163C282.014 73.7017 285.894 73.1114 289.105 71.1797C290.175 70.5089 291.165 69.7308 292.047 68.8455C292.904 67.9869 293.599 66.9943 294.161 65.9479L294.215 65.8405C294.429 65.5454 294.455 65.1698 294.295 64.8478C294.161 64.6064 293.921 64.4454 293.626 64.4454H289.345C288.971 64.4454 288.623 64.6064 288.409 64.8746C287.874 65.5186 287.231 66.1088 286.536 66.5918C285.787 67.0747 284.957 67.4503 284.101 67.6918C282.201 68.2552 280.168 68.1747 278.322 67.5308C277.332 67.182 276.395 66.6723 275.566 66.0283C274.737 65.3844 274.068 64.5796 273.559 63.6405C273.131 62.6478 272.811 61.6014 272.624 60.5282L272.597 60.3941H272.73L294.723 60.3404C295.633 60.3404 296.141 59.777 296.141 58.7843C296.248 57.0404 296.034 55.377 295.526 53.7671ZM290.843 55.7257L273.052 55.8062L273.105 55.6453C273.4 54.6257 273.854 53.6866 274.416 52.8013C275.111 51.7549 276.022 50.8696 277.038 50.1451C277.787 49.6622 278.617 49.2866 279.473 49.0451C281.372 48.4817 283.405 48.5622 285.252 49.2061C286.242 49.5549 287.178 50.0647 288.007 50.7086C288.837 51.3524 289.506 52.1842 290.014 53.0964C290.442 53.8476 290.763 54.6794 290.951 55.538L290.977 55.6721H290.843V55.7257Z" fill="#242A35"/>
<path d="M163.14 68.765C164.023 67.8528 164.799 66.8333 165.468 65.76C166.11 64.6332 166.618 63.4527 166.966 62.1917C167.689 59.6161 167.689 56.8794 166.966 54.3038C166.618 53.0696 166.11 51.8623 165.468 50.7354C164.183 48.5354 162.337 46.6842 160.117 45.3694C159.02 44.7256 157.843 44.2158 156.612 43.867C153.455 42.9549 150.083 43.1694 147.06 44.4573C145.776 45.0476 144.599 45.7987 143.528 46.6842L143.341 46.8451V45.289C143.422 44.5646 142.913 43.9207 142.191 43.8402C142.083 43.8402 141.977 43.8402 141.896 43.8402H139.649C138.899 43.7597 138.231 44.2695 138.151 45.0207C138.151 45.1012 138.151 45.2086 138.151 45.289V79.6579C138.124 80.4359 138.74 81.1067 139.515 81.1335C139.542 81.1335 139.542 81.1335 139.569 81.1335H141.869C142.271 81.1335 142.672 80.9994 142.967 80.7311C143.234 80.4628 143.395 80.0871 143.368 79.6847V69.6504L143.556 69.8114C144.599 70.6967 145.776 71.448 147.034 72.0114C150.057 73.3261 153.428 73.5407 156.585 72.6016C157.816 72.2529 159.02 71.7431 160.143 71.0992C161.214 70.4552 162.231 69.6772 163.14 68.765ZM156.317 67.3162C153.99 68.3894 151.341 68.3894 149.014 67.3162C147.863 66.8064 146.846 66.0552 145.99 65.1162C145.107 64.2039 144.412 63.1308 143.929 61.9502C142.94 59.5624 142.94 56.8526 143.929 54.4647C144.438 53.3111 145.133 52.2647 145.99 51.3525C146.846 50.4403 147.889 49.7159 149.014 49.2062C151.314 48.1329 153.99 48.1329 156.317 49.2062C157.441 49.7428 158.458 50.4671 159.314 51.3525C160.17 52.2647 160.866 53.3111 161.347 54.4647C162.364 56.8526 162.364 59.5624 161.347 61.9502C160.839 63.104 160.17 64.2039 159.314 65.143C158.458 66.0552 157.441 66.8064 156.317 67.3162Z" fill="#242A35"/>
<path d="M177.321 43.867H175.074C174.324 43.7865 173.656 44.2963 173.575 45.0476C173.575 45.1549 173.575 45.2622 173.575 45.3426V79.6847C173.575 80.0603 173.709 80.4359 173.976 80.7311C174.244 80.9994 174.618 81.1335 174.993 81.1335H177.294C177.696 81.1335 178.097 80.9994 178.391 80.7311C178.659 80.4628 178.819 80.0871 178.792 79.6847V69.6504L178.98 69.8114C180.023 70.6967 181.2 71.448 182.457 72.0114C185.482 73.3261 188.852 73.5407 192.009 72.6016C193.24 72.2529 194.444 71.7431 195.568 71.0992C196.665 70.4552 197.681 69.6504 198.591 68.765C199.474 67.8528 200.25 66.8333 200.892 65.76C201.535 64.6332 202.043 63.4527 202.391 62.1917C203.113 59.6161 203.113 56.8794 202.391 54.3038C202.043 53.0696 201.535 51.8623 200.892 50.7354C199.608 48.5354 197.762 46.6842 195.568 45.3694C194.471 44.7256 193.293 44.2158 192.063 43.867C188.906 42.9549 185.535 43.1694 182.512 44.4573C181.227 45.0476 180.049 45.7987 178.98 46.6842L178.766 46.8988V45.3426C178.873 44.6183 178.364 43.9475 177.641 43.867C177.535 43.867 177.427 43.867 177.321 43.867ZM179.354 54.5184C179.863 53.3648 180.558 52.3183 181.414 51.4062C182.271 50.4939 183.314 49.7696 184.437 49.233C186.739 48.1598 189.414 48.1598 191.742 49.233C192.865 49.7696 193.91 50.4939 194.766 51.3794C195.621 52.2915 196.318 53.3379 196.799 54.4916C197.815 56.8794 197.815 59.5892 196.799 61.9771C196.318 63.1576 195.621 64.2308 194.766 65.1699C193.91 66.082 192.92 66.8333 191.795 67.3699C189.467 68.443 186.792 68.443 184.492 67.3699C183.341 66.8601 182.324 66.1088 181.468 65.1699C180.585 64.2576 179.89 63.1845 179.408 62.0039C178.391 59.6161 178.364 56.9062 179.354 54.5184Z" fill="#242A35"/>
<path d="M261.921 44.9402C262.002 44.2157 261.466 43.5451 260.744 43.4646C260.637 43.4646 260.529 43.4646 260.423 43.4646H258.149C257.426 43.3841 256.784 43.8939 256.677 44.6182C256.677 44.7255 256.677 44.8328 256.677 44.9133V61.3868C256.704 62.3526 256.49 63.3185 256.062 64.1771C255.714 64.982 255.179 65.6796 254.51 66.243C253.868 66.7795 253.146 67.2088 252.37 67.504C250.604 68.1747 248.624 68.0674 246.938 67.2357C246.136 66.8332 245.44 66.243 244.932 65.5186C244.396 64.821 244.022 64.043 243.834 63.1844C243.62 62.3258 243.514 61.4405 243.487 60.5551V45.3695C243.514 44.8597 243.406 44.3767 243.139 43.9474C242.764 43.5719 242.229 43.3841 241.721 43.4377H240.089C239.607 43.4109 239.126 43.5987 238.778 43.9474C238.403 44.3499 238.216 44.8865 238.27 45.4499V60.6087C238.242 62.2721 238.511 63.9088 238.992 65.4917C239.474 66.9674 240.222 68.3357 241.212 69.5162C242.202 70.6699 243.433 71.6089 244.824 72.1992C247.259 73.1919 249.909 73.4333 252.476 72.9236C253.172 72.7626 253.841 72.5211 254.483 72.226C255.098 71.9309 255.66 71.5821 256.142 71.126L256.49 70.8041L256.677 70.6162V71.7699C256.677 72.1187 256.811 72.4407 257.052 72.6821C257.319 73.0309 257.748 73.2188 258.202 73.1919H260.503C260.878 73.1919 261.252 73.0578 261.519 72.7895C261.814 72.5211 261.975 72.1455 261.921 71.743V44.9402Z" fill="#242A35"/>
<path d="M319.579 61.0651C319.097 60.0725 318.402 59.1871 317.546 58.4626C316.609 57.6846 315.566 57.0675 314.442 56.6114C313.184 56.0748 311.873 55.6723 310.536 55.4041C309.893 55.2431 309.251 55.0553 308.609 54.8138C308.047 54.5992 307.513 54.3309 307.004 53.9821C306.335 53.5796 305.8 52.9626 305.506 52.2382C305.345 51.7015 305.345 51.1113 305.506 50.5747C305.693 49.9576 306.442 48.2942 309.412 48.1064C312.248 47.9186 313.666 49.421 314.148 50.0918C314.228 50.1723 314.923 51.0844 315.405 51.6479C315.485 51.7284 315.592 51.8089 315.699 51.8625C316.1 52.0235 316.582 51.9699 316.93 51.7015L318.642 50.4138C319.017 50.1723 319.258 49.7698 319.258 49.3137V49.26C319.178 48.9381 319.044 48.6162 318.856 48.321C318.348 47.5966 317.786 46.899 317.198 46.2283C316.662 45.6112 316.047 45.0746 315.378 44.6185C314.656 44.1893 313.906 43.8405 313.077 43.6258C310.776 43.0356 308.342 43.1429 306.094 43.8941C304.944 44.2429 303.901 44.8063 302.99 45.5844C302.135 46.3088 301.438 47.221 300.957 48.2406C300.02 50.3064 299.967 52.6943 300.877 54.787C301.305 55.726 301.921 56.5577 302.723 57.2553C303.579 57.9797 304.489 58.5968 305.478 59.1066C306.629 59.6432 307.86 60.0992 309.09 60.4212C309.465 60.5017 309.813 60.609 310.214 60.7163C310.589 60.8237 310.964 60.931 311.339 61.0115C312.007 61.1725 312.649 61.4139 313.264 61.7359C313.773 61.9774 314.228 62.3262 314.602 62.7822C315.271 63.7481 315.244 65.0359 314.549 65.975C314.174 66.4579 313.719 66.8604 313.184 67.1823C312.649 67.5043 312.06 67.7457 311.472 67.8799C310.455 68.1214 309.385 68.1214 308.368 67.8799C307.833 67.7457 307.325 67.5579 306.816 67.2896C306.309 67.0481 305.853 66.7263 305.425 66.3506C305.05 65.9213 304.703 65.4384 304.435 64.9286C304.302 64.6334 304.115 64.3652 303.873 64.1506C303.472 63.8018 302.911 63.7481 302.455 63.9896L300.395 64.9554C300.208 65.0359 300.075 65.1432 299.914 65.2774C299.806 65.3847 299.7 65.5189 299.646 65.653C299.566 65.8677 299.539 66.0823 299.592 66.297C299.619 66.5116 299.673 66.7263 299.753 66.9408C300.101 67.8799 300.609 68.7653 301.251 69.5433C301.947 70.4019 302.83 71.0995 303.793 71.6092C304.703 72.1458 305.693 72.5483 306.71 72.7629C309.064 73.3264 311.552 73.2459 313.88 72.5483C315.11 72.1995 316.261 71.6092 317.251 70.8312C318.214 70.1068 318.99 69.1409 319.525 68.0409C320.596 65.8408 320.596 63.292 319.579 61.0651Z" fill="#242A35"/>
</g>
</g>
<defs>
<clipPath id="clip0_1_489">
<rect width="340" height="105.58" fill="white"/>
</clipPath>
<clipPath id="clip1_1_489">
<rect width="340" height="105.58" fill="white"/>
</clipPath>
</defs>
</svg>
